# Blender v2.93.5 OBJ File: ''
# www.blender.org
mtllib square0.mtl
o Cube
v 0.900000 0.100000 -0.900000
v 0.900000 -0.100000 -0.900000
v 0.900000 0.100000 0.900000
v 0.900000 -0.100000 0.900000
v -0.900000 0.100000 -0.900000
v -0.900000 -0.100000 -0.900000
v -0.900000 0.100000 0.900000
v -0.900000 -0.100000 0.900000
v 0.658616 0.100000 -0.875781
v 0.878629 0.100000 0.651851
v 0.878629 0.100000 0.870085
v 0.878629 0.100000 -0.875781
v -0.881477 0.100000 0.870085
v -0.881477 0.100000 -0.657548
v -0.661464 0.100000 0.870085
v -0.881477 0.100000 -0.875781
v -0.881477 -0.100000 0.870085
v -0.881477 -0.100000 0.651851
v -0.661464 -0.100000 -0.875781
v -0.881477 -0.100000 -0.875781
v 0.658616 -0.100000 0.870085
v 0.878629 -0.100000 -0.657548
v 0.878629 -0.100000 0.870085
v 0.878629 -0.100000 -0.875781
vt 0.375000 0.750000
vt 0.625000 0.750000
vt 0.625000 1.000000
vt 0.375000 1.000000
vt 0.375000 0.000000
vt 0.625000 0.000000
vt 0.625000 0.250000
vt 0.375000 0.250000
vt 0.375000 0.500000
vt 0.625000 0.500000
vt 0.000000 0.000000
vt 0.000000 0.000000
vt 0.000000 0.000000
vt 0.000000 0.000000
vt 0.000000 0.000000
vt 0.000000 0.000000
vt 0.000000 0.000000
vt 0.000000 0.000000
vt 0.000000 0.000000
vt 0.000000 0.000000
vt 0.000000 0.000000
vt 0.000000 0.000000
vt 0.000000 0.000000
vt 0.000000 0.000000
vt 0.000000 0.000000
vt 0.000000 0.000000
vt 0.627968 0.503364
vt 0.875000 0.500000
vt 0.872427 0.503364
vt 0.658526 0.503364
vt 0.875000 0.750000
vt 0.627968 0.715535
vt 0.627968 0.745845
vt 0.841870 0.745845
vt 0.872427 0.745845
vt 0.872427 0.533674
vt 0.127573 0.503364
vt 0.125000 0.500000
vt 0.372032 0.503364
vt 0.158130 0.503364
vt 0.125000 0.750000
vt 0.127573 0.715535
vt 0.127573 0.745845
vt 0.341474 0.745845
vt 0.372032 0.745845
vt 0.372032 0.533674
vn 0.0000 0.0000 1.0000
vn -1.0000 0.0000 0.0000
vn 1.0000 0.0000 0.0000
vn 0.0000 0.0000 -1.0000
vn 0.0000 1.0000 -0.0000
vn 0.0000 -1.0000 -0.0000
usemtl Material
s off
f 4/1/1 3/2/1 7/3/1 8/4/1
f 8/5/2 7/6/2 5/7/2 6/8/2
f 2/9/3 1/10/3 3/2/3 4/1/3
f 6/8/4 5/7/4 1/10/4 2/9/4
f 10/11/2 22/12/2 23/13/2 11/14/2
f 13/15/4 15/16/4 21/17/4 17/18/4
f 20/19/3 16/20/3 14/21/3 18/22/3
f 24/23/1 12/24/1 9/25/1 19/26/1
f 22/12/2 10/11/2 12/24/2 24/23/2
f 21/17/4 15/16/4 11/14/4 23/13/4
f 13/15/3 17/18/3 18/22/3 14/21/3
f 16/20/1 20/19/1 19/26/1 9/25/1
f 12/27/5 1/10/5 5/28/5 16/29/5 9/30/5
f 5/28/5 7/31/5 3/2/5 1/10/5 12/27/5 10/32/5 11/33/5 15/34/5 13/35/5 14/36/5 16/29/5
f 20/37/6 6/38/6 2/9/6 24/39/6 19/40/6
f 2/9/6 4/1/6 8/41/6 6/38/6 20/37/6 18/42/6 17/43/6 21/44/6 23/45/6 22/46/6 24/39/6
